<svg width="28" height="28" viewBox="0 0 28 28" fill="none" xmlns="http://www.w3.org/2000/svg">
<g clip-path="url(#clip0_2470_79)">
<path d="M14 28C21.732 28 28 21.732 28 14C28 6.26801 21.732 0 14 0C6.26801 0 0 6.26801 0 14C0 21.732 6.26801 28 14 28Z" fill="#32BA7C"/>
<path d="M10.4229 20.3159L17.6216 27.5146C23.5837 25.9247 28.0001 20.4925 28.0001 14.0004C28.0001 13.8679 28.0001 13.7354 28.0001 13.603L22.3471 8.3916L10.4229 20.3159Z" fill="#0AA06E"/>
<path d="M14.353 17.1362C14.9713 17.7545 14.9713 18.8145 14.353 19.4328L13.0722 20.7135C12.4539 21.3318 11.394 21.3318 10.7757 20.7135L5.16685 15.0605C4.54855 14.4422 4.54855 13.3823 5.16685 12.764L6.4476 11.4833C7.0659 10.865 8.12584 10.865 8.74413 11.4833L14.353 17.1362Z" fill="white"/>
<path d="M19.255 7.37583C19.8733 6.75754 20.9332 6.75754 21.5515 7.37583L22.8323 8.65659C23.4506 9.27488 23.4506 10.3348 22.8323 10.9531L13.1162 20.625C12.4979 21.2433 11.438 21.2433 10.8197 20.625L9.53892 19.3443C8.92062 18.726 8.92062 17.666 9.53892 17.0478L19.255 7.37583Z" fill="white"/>
</g>
<defs>
<clipPath id="clip0_2470_79">
<rect width="28" height="28" fill="white"/>
</clipPath>
</defs>
</svg>
