<svg width="107" height="107" viewBox="0 0 107 107" fill="none" xmlns="http://www.w3.org/2000/svg">
<circle cx="53.5" cy="53.5" r="53.5" fill="#F4F6FC"/>
<path d="M72.1275 28H34.8724C31.077 28 28 31.1371 28 35.0071V72.9926C28 76.8626 31.0768 79.9997 34.8724 79.9997H53.2464L53.2777 61.4179H48.543C47.9277 61.4179 47.4282 60.9106 47.4259 60.2832L47.4032 54.2935C47.4008 53.6627 47.9017 53.15 48.5204 53.15H53.2466V47.3624C53.2466 40.646 57.2697 36.9888 63.146 36.9888H67.968C68.5849 36.9888 69.0852 37.4988 69.0852 38.128V43.1785C69.0852 43.8074 68.5853 44.3173 67.9686 44.3176L65.0094 44.319C61.8137 44.319 61.1949 45.8674 61.1949 48.1397V53.1501H68.217C68.8861 53.1501 69.4052 53.7458 69.3264 54.4233L68.6301 60.4131C68.5635 60.9862 68.0867 61.4181 67.5207 61.4181H61.2262L61.1949 80H72.1277C75.9232 80 79 76.8629 79 72.993V35.0071C78.9999 31.1371 75.923 28 72.1275 28Z" fill="#475993"/>
</svg>
