<svg width="107" height="107" viewBox="0 0 107 107" fill="none" xmlns="http://www.w3.org/2000/svg">
<g clip-path="url(#clip0_2572_37)">
<path d="M53.5 107C83.0472 107 107 83.0472 107 53.5C107 23.9528 83.0472 0 53.5 0C23.9528 0 0 23.9528 0 53.5C0 83.0472 23.9528 107 53.5 107Z" fill="#F4F6FC"/>
<path d="M82.4026 26.3196C82.3984 24.5374 80.9652 23.1025 79.1833 23.0963L51.2137 23C50.1918 22.9965 49.2226 23.4721 48.5949 24.2849L38.8239 36.9396C38.7005 37.0994 38.5919 37.2702 38.4997 37.4498L30.4841 53.0557C30.2436 53.5239 30.1188 54.0421 30.1204 54.5664L30.189 76.9858C30.1944 78.7666 31.6265 80.2 33.407 80.2068L50.9016 80.274C51.3149 80.2756 51.7254 80.1987 52.1115 80.0472L80.3982 68.9533C81.6643 68.4568 82.4994 67.232 82.4962 65.8765L82.4026 26.3196Z" fill="url(#paint0_linear_2572_37)"/>
<path d="M24 33.4996C24 31.6973 25.461 30.2363 27.2632 30.2363H52.0176C52.8016 30.2363 53.5595 30.5186 54.1525 31.0316L82.8336 55.8421C83.5502 56.4619 83.962 57.3626 83.962 58.31V79.3208C83.962 81.1231 82.501 82.5841 80.6987 82.5841H62.4481C61.8782 82.5841 61.3181 82.4348 60.8238 82.1511L25.6389 61.958C24.6252 61.3762 24 60.2966 24 59.1277V33.4996Z" fill="url(#paint1_linear_2572_37)"/>
<path d="M75.6283 56.4339C74.8003 65.0638 68.9222 72.2189 60.9835 74.9083L43.133 57.0578C43.8367 57.7615 44.8089 58.1972 45.8832 58.1972C46.8091 58.1972 47.6585 57.8738 48.3268 57.3341L56.0991 61.8214C56.0679 62.0167 56.0527 62.2166 56.0527 62.4204C56.0527 64.569 57.7941 66.3104 59.9427 66.3104C62.0909 66.3104 63.8327 64.569 63.8327 62.4204C63.8327 60.751 62.7814 59.3272 61.3046 58.7758C60.8955 58.6227 60.4544 58.5366 59.9938 58.5311H59.9154C59.908 58.5303 59.9003 58.5303 59.8932 58.5311C59.4116 58.5366 58.9506 58.6305 58.5263 58.7973C58.1448 58.9461 57.7918 59.1546 57.4793 59.4094L49.7242 54.9318C49.7573 54.7284 49.7744 54.5199 49.774 54.3072C49.774 54.1123 49.7596 53.9206 49.7319 53.7336L57.4793 49.2598H57.48C57.7922 49.5154 58.1448 49.7235 58.5263 49.8724C58.951 50.0392 59.4116 50.1331 59.8932 50.1385C59.8983 50.1393 59.9038 50.1393 59.9088 50.1385C59.9096 50.1393 59.9112 50.1393 59.9123 50.1385C59.9131 50.1393 59.9139 50.1393 59.9143 50.1385C59.9143 50.1385 59.9147 50.1385 59.9154 50.1385H59.9938C60.4547 50.1331 60.8958 50.0469 61.3046 49.8938C62.7814 49.3424 63.8327 47.9186 63.8327 46.2493C63.8327 45.1831 63.4041 44.2176 62.7101 43.5154L75.6283 56.4336V56.4339Z" fill="#C7DFFF"/>
<path d="M75.6283 56.4337L62.7101 43.5156C63.4045 44.2178 63.8327 45.1833 63.8327 46.2495C63.8327 47.9188 62.7814 49.3426 61.3046 49.894C60.8955 50.0471 60.4544 50.1333 59.9938 50.1387H59.9154C59.9154 50.1387 59.9147 50.1395 59.9143 50.1387C59.9135 50.1395 59.9127 50.1395 59.9123 50.1387C59.9115 50.1395 59.91 50.1395 59.9088 50.1387C59.9038 50.1395 59.8983 50.1395 59.8932 50.1387C59.4116 50.1336 58.9506 50.0397 58.5263 49.8726C58.1448 49.7237 57.7922 49.5156 57.48 49.26H57.4793L49.7319 53.7338C49.7596 53.9208 49.774 54.1121 49.774 54.3073C49.774 54.5201 49.7569 54.7286 49.7242 54.932L57.4793 59.4096C57.7918 59.1548 58.1448 58.9463 58.5263 58.7975C58.951 58.6307 59.4116 58.5368 59.8932 58.5313C59.9002 58.5305 59.908 58.5305 59.9154 58.5313H59.9938C60.4547 58.5368 60.8958 58.6229 61.3046 58.776C62.7814 59.3274 63.8327 60.7512 63.8327 62.4206C63.8327 64.5692 62.0909 66.3106 59.9427 66.3106C57.7941 66.3106 56.0527 64.5692 56.0527 62.4206C56.0527 62.2168 56.0679 62.0169 56.0991 61.8216L48.3268 57.3343C47.6589 57.8739 46.8095 58.1974 45.8832 58.1974C44.8089 58.1974 43.8367 57.7617 43.133 57.058L60.9835 74.9085C58.7952 75.6497 56.4502 76.0522 54.0112 76.0522C42.0174 76.0522 32.2941 66.3289 32.2941 54.335C32.2941 42.3411 42.0177 32.6174 54.0116 32.6174C66.0055 32.6174 75.7288 42.3407 75.7288 54.3346C75.7288 55.043 75.6949 55.7429 75.6287 56.4337H75.6283Z" fill="#D6F1FE"/>
<path d="M60.5654 50.7888H60.5626C60.5618 50.7888 60.561 50.7889 60.5601 50.7889C60.5544 50.7892 60.5488 50.7894 60.5435 50.7894M60.5654 50.7888L60.5428 50.4393M60.5654 50.7888L60.6253 50.7888L60.6295 50.7888C61.1313 50.7828 61.6125 50.6889 62.0589 50.5219C63.668 49.921 64.8143 48.3695 64.8143 46.5495C64.8143 45.3877 64.3472 44.3347 63.5906 43.5696L63.5892 43.5682L63.5561 43.535L63.5546 43.5336C62.7891 42.777 61.7361 42.3099 60.5743 42.3099C58.2324 42.3099 56.3343 44.208 56.3343 46.5499C56.3343 46.6885 56.3408 46.826 56.354 46.9621L49.0275 51.1918C48.3245 50.6746 47.4556 50.3678 46.5152 50.3678C44.1737 50.3678 42.2752 52.2659 42.2752 54.6078C42.2752 55.7787 42.75 56.8389 43.5171 57.6059C44.2837 58.3726 45.3439 58.8478 46.5148 58.8478C47.4367 58.8478 48.2896 58.5535 48.985 58.0543M60.5654 50.7888C60.5586 50.7892 60.5518 50.7894 60.5447 50.7894C60.5443 50.7894 60.5439 50.7894 60.5435 50.7894M60.5435 50.7894C60.5419 50.7894 60.5403 50.7894 60.5388 50.7893C60.5384 50.7893 60.538 50.7893 60.5376 50.7893M60.5435 50.7894C60.5431 50.7894 60.5427 50.7894 60.5423 50.7894C60.5407 50.7894 60.5392 50.7894 60.5376 50.7893M60.5376 50.7893C60.5321 50.7893 60.5266 50.7891 60.5211 50.7887V50.7888C60.5167 50.7887 60.5122 50.7887 60.5078 50.7886M60.5376 50.7893C60.5277 50.7895 60.5177 50.7892 60.5078 50.7886M60.5078 50.7886C60.4957 50.7879 60.4836 50.7866 60.4716 50.7847L60.472 50.7823C60.4274 50.7733 60.3847 50.7556 60.3463 50.73L60.3472 50.7285C60.2932 50.6912 60.2541 50.6418 60.2309 50.5953L60.5232 50.4491L60.5248 50.4388M60.5078 50.7886C59.9877 50.7815 59.4894 50.6793 59.0301 50.4985M60.5248 50.4388L60.5247 50.4484L60.5386 50.4414L60.5404 50.4388M60.5248 50.4388C60.5299 50.4396 60.5353 50.4396 60.5404 50.4388M60.5248 50.4388C60.0432 50.4337 59.5822 50.3398 59.1579 50.1727M60.5404 50.4388L60.5406 50.4404L60.5428 50.4393M60.5404 50.4388C60.5411 50.4393 60.542 50.4395 60.5427 50.4393C60.5427 50.4393 60.5428 50.4393 60.5428 50.4393M60.5428 50.4393L56.7306 62.1221C56.6995 62.3173 56.6843 62.5172 56.6843 62.721C56.6843 64.8696 58.4257 66.6111 60.5743 66.6111C62.7225 66.6111 64.4643 64.8696 64.4643 62.721V62.7206C64.4643 61.0513 63.413 59.6275 61.9362 59.0761M59.1579 50.1727C58.7764 50.0238 58.4237 49.8157 58.1116 49.5601M59.1579 50.1727L59.0306 50.4987C59.0304 50.4986 59.0303 50.4986 59.0301 50.4985M59.1579 50.1727L59.0296 50.4983C59.0297 50.4984 59.0299 50.4984 59.0301 50.4985M58.1116 49.5601H58.1108M58.1116 49.5601V49.5614L58.2859 49.8632L58.0832 49.9802M58.1116 49.5601L58.1112 49.5607L58.1108 49.5601M58.1108 49.5601L50.3635 54.0338M58.1108 49.5601V49.5611L57.8899 49.8309C57.9528 49.8824 58.0173 49.9322 58.0832 49.9802M50.3635 54.0338C50.3912 54.2209 50.4056 54.4122 50.4056 54.6074C50.4056 54.8202 50.3885 55.0287 50.3557 55.2321M50.3635 54.0338L50.7098 53.9826C50.7214 54.0616 50.731 54.1413 50.7382 54.2216M50.3635 54.0338L50.5385 54.3369L50.7382 54.2216M50.3557 55.2321L58.1108 59.7097M50.3557 55.2321L50.5307 54.929L50.7332 55.0458M50.3557 55.2321L50.7013 55.2877C50.7141 55.2078 50.7248 55.1271 50.7332 55.0458M58.1108 59.7097C58.4233 59.4549 58.7764 59.2464 59.1579 59.0975M58.1108 59.7097L57.8896 59.4385C57.9527 59.3871 58.0172 59.3374 58.0832 59.2896M58.1108 59.7097L58.2858 59.4066L58.0832 59.2896M59.1579 59.0975C59.5826 58.9308 60.0432 58.8369 60.5248 58.8314M59.1579 59.0975L59.0299 58.7717C59.0301 58.7717 59.0302 58.7717 59.0303 58.7716M59.1579 59.0975L59.0306 58.7715C59.0305 58.7715 59.0304 58.7716 59.0303 58.7716M60.5248 58.8314C60.5318 58.8306 60.5396 58.8306 60.547 58.8314M60.5248 58.8314L60.5208 58.4814C60.5171 58.4815 60.5134 58.4815 60.5096 58.4816M60.5248 58.8314L60.4862 58.4835C60.494 58.4827 60.5019 58.482 60.5096 58.4816M60.547 58.8314H60.6253C61.0863 58.8369 61.5274 58.923 61.9362 59.0761M60.547 58.8314L60.5837 58.4833C60.5755 58.4825 60.5673 58.4818 60.5589 58.4814M60.547 58.8314V58.4814H60.5589M61.9362 59.0761L62.0586 58.7482M61.9362 59.0761L62.0586 58.7482M48.985 58.0543L56.354 62.3088C56.3408 62.4449 56.3343 62.5824 56.3343 62.721C56.3343 65.0629 58.2324 66.9611 60.5743 66.9611C62.9158 66.9611 64.8143 65.063 64.8143 62.721V62.7206C64.8143 60.9008 63.6681 59.3493 62.059 58.7484L48.985 58.0543ZM48.985 58.0543L59.0303 58.7716M59.0301 50.4985C58.6911 50.3662 58.3732 50.1911 58.0832 49.9802M58.0832 49.9802L50.7382 54.2216M50.7382 54.2216C50.7497 54.3486 50.7556 54.4773 50.7556 54.6074C50.7556 54.7555 50.748 54.9017 50.7332 55.0458M50.7332 55.0458L58.0832 59.2896M58.0832 59.2896C58.3732 59.0793 58.6912 58.904 59.0303 58.7716M62.0586 58.7482C61.6126 58.5812 61.1316 58.4874 60.6295 58.4814V58.4814H60.6253H60.5589M62.0586 58.7482L60.5096 58.4816M60.5589 58.4814C60.5428 58.4806 60.5263 58.4806 60.5096 58.4816M60.5447 50.4394L60.5446 50.4394L60.5447 50.4394ZM60.547 50.44L60.5462 50.4391L60.547 50.44Z" fill="#3353E3" stroke="#3353E3" stroke-width="0.7"/>
</g>
<defs>
<linearGradient id="paint0_linear_2572_37" x1="31.3641" y1="81.7865" x2="92.3228" y2="42.6978" gradientUnits="userSpaceOnUse">
<stop offset="0.105" stop-color="#59A4FF"/>
<stop offset="1" stop-color="#2770D3"/>
</linearGradient>
<linearGradient id="paint1_linear_2572_37" x1="103.934" y1="80.2399" x2="28.9601" y2="16.3607" gradientUnits="userSpaceOnUse">
<stop stop-color="#595EFF"/>
<stop offset="1" stop-color="#4DB8FF"/>
</linearGradient>
<clipPath id="clip0_2572_37">
<rect width="107" height="107" fill="white"/>
</clipPath>
</defs>
</svg>
