<svg width="107" height="107" viewBox="0 0 107 107" fill="none" xmlns="http://www.w3.org/2000/svg">
<circle cx="53.5" cy="53.5" r="53.5" fill="#F4F6FC"/>
<g clip-path="url(#clip0_2470_72)">
<path d="M54.2023 25C42.4886 25 39.0628 25.0119 38.3969 25.0666C35.993 25.2641 34.4972 25.6383 32.8676 26.4404C31.6117 27.0569 30.6213 27.7716 29.6437 28.7734C27.8635 30.6003 26.7846 32.848 26.394 35.5197C26.2041 36.8167 26.1489 37.0813 26.1377 43.7064C26.1333 45.9148 26.1377 48.8212 26.1377 52.7196C26.1377 64.2905 26.1506 67.6739 26.2067 68.331C26.4009 70.6435 26.7678 72.0984 27.5446 73.6898C29.0292 76.7362 31.8646 79.0231 35.205 79.8764C36.3616 80.1708 37.639 80.3329 39.279 80.4097C39.9739 80.4396 47.0559 80.4609 54.1424 80.4609C61.2288 80.4609 68.3152 80.4524 68.9927 80.4182C70.8917 80.3299 71.9943 80.1836 73.2135 79.8721C74.8698 79.4522 76.4134 78.6799 77.7365 77.6091C79.0596 76.5384 80.1304 75.195 80.8739 73.6728C81.6356 72.1197 82.0219 70.6094 82.1967 68.4176C82.2347 67.9398 82.2506 60.3209 82.2506 52.7123C82.2506 45.1024 82.2334 37.4977 82.1954 37.0198C82.0184 34.7927 81.6322 33.2951 80.8459 31.7122C80.2007 30.4164 79.4842 29.4488 78.4442 28.4593C76.5884 26.7066 74.3183 25.64 71.6128 25.2543C70.3021 25.067 70.041 25.0115 63.3344 25H54.2023Z" fill="url(#paint0_radial_2470_72)"/>
<path d="M54.2023 25C42.4886 25 39.0628 25.0119 38.3969 25.0666C35.993 25.2641 34.4972 25.6383 32.8676 26.4404C31.6117 27.0569 30.6213 27.7716 29.6437 28.7734C27.8635 30.6003 26.7846 32.848 26.394 35.5197C26.2041 36.8167 26.1489 37.0813 26.1377 43.7064C26.1333 45.9148 26.1377 48.8212 26.1377 52.7196C26.1377 64.2905 26.1506 67.6739 26.2067 68.331C26.4009 70.6435 26.7678 72.0984 27.5446 73.6898C29.0292 76.7362 31.8646 79.0231 35.205 79.8764C36.3616 80.1708 37.639 80.3329 39.279 80.4097C39.9739 80.4396 47.0559 80.4609 54.1424 80.4609C61.2288 80.4609 68.3152 80.4524 68.9927 80.4182C70.8917 80.3299 71.9943 80.1836 73.2135 79.8721C74.8698 79.4522 76.4134 78.6799 77.7365 77.6091C79.0596 76.5384 80.1304 75.195 80.8739 73.6728C81.6356 72.1197 82.0219 70.6094 82.1967 68.4176C82.2347 67.9398 82.2506 60.3209 82.2506 52.7123C82.2506 45.1024 82.2334 37.4977 82.1954 37.0198C82.0184 34.7927 81.6322 33.2951 80.8459 31.7122C80.2007 30.4164 79.4842 29.4488 78.4442 28.4593C76.5884 26.7066 74.3183 25.64 71.6128 25.2543C70.3021 25.067 70.041 25.0115 63.3344 25H54.2023Z" fill="url(#paint1_radial_2470_72)"/>
<path d="M54.1894 32.2529C48.5634 32.2529 47.8574 32.2772 45.6477 32.3767C43.4424 32.4765 41.9371 32.8217 40.6199 33.3281C39.2574 33.8512 38.1017 34.5509 36.9503 35.6897C35.798 36.828 35.0902 37.9706 34.5594 39.3171C34.0458 40.6197 33.6962 42.1083 33.5969 44.2877C33.4986 46.4722 33.4727 47.1706 33.4727 52.7325C33.4727 58.2944 33.4977 58.9903 33.5978 61.1748C33.6992 63.355 34.0484 64.8432 34.5602 66.1454C35.0898 67.4923 35.7975 68.6349 36.9494 69.7733C38.1004 70.9124 39.2561 71.6139 40.6178 72.137C41.9358 72.6434 43.4415 72.9886 45.6464 73.0884C47.8561 73.1878 48.5617 73.2121 54.1872 73.2121C59.8136 73.2121 60.5175 73.1878 62.7272 73.0884C64.9325 72.9886 66.4396 72.6434 67.7576 72.137C69.1196 71.6139 70.2736 70.9124 71.4246 69.7733C72.5769 68.6349 73.2847 67.4924 73.8156 66.1458C74.3248 64.8432 74.6744 63.3546 74.778 61.1752C74.8772 58.9908 74.9031 58.2944 74.9031 52.7325C74.9031 47.1706 74.8772 46.4726 74.778 44.2881C74.6744 42.1079 74.3248 40.6197 73.8156 39.3175C73.2847 37.9706 72.5769 36.828 71.4246 35.6897C70.2723 34.5505 69.1201 33.8508 67.7563 33.3281C66.4357 32.8217 64.9295 32.4765 62.7242 32.3767C60.5145 32.2772 59.811 32.2529 54.1834 32.2529H54.1894ZM52.331 35.9435C52.8826 35.9427 53.498 35.9435 54.1894 35.9435C59.7204 35.9435 60.376 35.9632 62.5602 36.0613C64.5799 36.1526 65.6761 36.4862 66.4063 36.7665C67.373 37.1377 68.0623 37.5815 68.7869 38.2983C69.5119 39.015 69.9608 39.6977 70.3371 40.6534C70.6206 41.3745 70.9585 42.4582 71.0505 44.4549C71.1497 46.6138 71.1713 47.2623 71.1713 52.7278C71.1713 58.1933 71.1497 58.8419 71.0505 61.0007C70.9581 62.9975 70.6206 64.0812 70.3371 64.8023C69.9616 65.758 69.5119 66.4385 68.7869 67.1549C68.0618 67.8717 67.3735 68.3154 66.4063 68.6866C65.677 68.9682 64.5799 69.301 62.5602 69.3923C60.3764 69.4904 59.7204 69.5117 54.1894 69.5117C48.6579 69.5117 48.0024 69.4904 45.8186 69.3923C43.7989 69.3001 42.7027 68.9665 41.972 68.6861C41.0053 68.3149 40.3148 67.8712 39.5898 67.1544C38.8647 66.4377 38.4159 65.7567 38.0395 64.8006C37.756 64.0795 37.4181 62.9958 37.3262 60.999C37.2269 58.8401 37.207 58.1916 37.207 52.7227C37.207 47.2538 37.2269 46.6087 37.3262 44.4498C37.4185 42.4531 37.756 41.3693 38.0395 40.6474C38.415 39.6917 38.8647 39.0091 39.5898 38.2923C40.3148 37.5755 41.0053 37.1318 41.972 36.7597C42.7022 36.4781 43.7989 36.1453 45.8186 36.0536C47.7296 35.9683 48.4702 35.9427 52.331 35.9384V35.9435ZM65.2471 39.344C64.7554 39.344 64.2748 39.4881 63.866 39.7582C63.4572 40.0283 63.1385 40.4122 62.9504 40.8613C62.7623 41.3104 62.7131 41.8046 62.8091 42.2813C62.9051 42.758 63.1419 43.1959 63.4897 43.5396C63.8374 43.8833 64.2804 44.1173 64.7627 44.212C65.245 44.3067 65.7448 44.2579 66.199 44.0718C66.6532 43.8856 67.0414 43.5705 67.3145 43.1663C67.5875 42.762 67.7332 42.2868 67.733 41.8007C67.733 40.4439 66.6195 39.3431 65.2471 39.3431V39.344ZM54.1894 42.2154C48.3144 42.2154 43.5512 46.9244 43.5512 52.7325C43.5512 58.5406 48.3144 63.2475 54.1894 63.2475C60.0644 63.2475 64.8263 58.5406 64.8263 52.7325C64.8263 46.9244 60.0644 42.2154 54.1894 42.2154ZM54.1894 45.906C58.0028 45.906 61.0945 48.9622 61.0945 52.7325C61.0945 56.5025 58.0028 59.5591 54.1894 59.5591C50.3756 59.5591 47.2842 56.5025 47.2842 52.7325C47.2842 48.9622 50.3756 45.906 54.1894 45.906Z" fill="white"/>
</g>
<defs>
<radialGradient id="paint0_radial_2470_72" cx="0" cy="0" r="1" gradientUnits="userSpaceOnUse" gradientTransform="translate(41.0413 84.7325) rotate(-90) scale(54.9658 51.7254)">
<stop stop-color="#FFDD55"/>
<stop offset="0.1" stop-color="#FFDD55"/>
<stop offset="0.5" stop-color="#FF543E"/>
<stop offset="1" stop-color="#C837AB"/>
</radialGradient>
<radialGradient id="paint1_radial_2470_72" cx="0" cy="0" r="1" gradientUnits="userSpaceOnUse" gradientTransform="translate(16.7362 28.9953) rotate(78.5507) scale(24.5812 102.426)">
<stop stop-color="#3771C8"/>
<stop offset="0.128" stop-color="#3771C8"/>
<stop offset="1" stop-color="#6600FF" stop-opacity="0"/>
</radialGradient>
<clipPath id="clip0_2470_72">
<rect width="56.3858" height="55.4609" fill="white" transform="translate(26 25)"/>
</clipPath>
</defs>
</svg>
