<svg width="100" height="100" viewBox="0 0 512 512" fill="none" xmlns="http://www.w3.org/2000/svg">
<path d="M466.531 56.193C466.5 43.0855 455.96 32.5319 442.855 32.4868L237.148 31.7785C229.632 31.7526 222.503 35.2503 217.887 41.2287L146.025 134.299C145.117 135.475 144.319 136.731 143.64 138.052L84.6881 252.828C82.9193 256.272 82.0019 260.083 82.0137 263.939L82.5176 428.826C82.5577 441.923 93.0899 452.465 106.185 452.515L234.852 453.01C237.891 453.021 240.911 452.455 243.751 451.342L451.79 369.75C461.102 366.097 467.244 357.09 467.22 347.12L466.531 56.193Z" fill="url(#paint0_linear_2555_7)"/>
<path d="M37 109C37 95.7452 47.7452 85 61 85H243.06C248.826 85 254.4 87.0763 258.761 90.8489L469.702 273.322C474.972 277.88 478 284.504 478 291.473V446C478 459.255 467.255 470 454 470H319.773C315.581 470 311.462 468.902 307.827 466.816L49.0537 318.302C41.5978 314.023 37 306.083 37 297.486V109Z" fill="url(#paint1_linear_2555_7)"/>
<path d="M433.709 284.161C427.619 347.631 384.387 400.254 326.001 420.034L194.717 288.749C199.892 293.925 207.043 297.129 214.944 297.129C221.753 297.129 228.001 294.75 232.916 290.781L290.078 323.784C289.849 325.22 289.737 326.69 289.737 328.189C289.737 343.991 302.544 356.799 318.347 356.799C334.146 356.799 346.956 343.991 346.956 328.189C346.956 315.912 339.224 305.44 328.363 301.385C325.354 300.259 322.109 299.625 318.722 299.585H318.146C318.092 299.579 318.034 299.579 317.983 299.585C314.44 299.625 311.05 300.316 307.929 301.542C305.124 302.637 302.527 304.17 300.229 306.045L243.192 273.113C243.436 271.617 243.562 270.084 243.559 268.519C243.559 267.086 243.453 265.676 243.25 264.301L300.229 231.398H300.234C302.53 233.278 305.124 234.808 307.929 235.903C311.053 237.13 314.44 237.82 317.983 237.86C318.02 237.866 318.06 237.866 318.097 237.86C318.103 237.866 318.114 237.866 318.123 237.86C318.129 237.866 318.135 237.866 318.137 237.86C318.137 237.86 318.14 237.86 318.146 237.86H318.722C322.112 237.82 325.356 237.187 328.363 236.061C339.224 232.005 346.956 221.534 346.956 209.256C346.956 201.415 343.804 194.314 338.7 189.149L433.709 284.158V284.161Z" fill="#C7DFFF"/>
<path d="M433.709 284.161L338.7 189.152C343.807 194.316 346.956 201.418 346.956 209.259C346.956 221.536 339.224 232.008 328.363 236.063C325.354 237.19 322.11 237.823 318.722 237.863H318.146C318.146 237.863 318.14 237.869 318.137 237.863C318.132 237.869 318.126 237.869 318.123 237.863C318.117 237.869 318.106 237.869 318.097 237.863C318.06 237.869 318.02 237.869 317.983 237.863C314.44 237.826 311.05 237.135 307.929 235.906C305.124 234.811 302.53 233.281 300.234 231.401H300.229L243.25 264.303C243.453 265.679 243.559 267.086 243.559 268.522C243.559 270.087 243.433 271.62 243.192 273.116L300.229 306.047C302.527 304.173 305.124 302.64 307.929 301.545C311.053 300.319 314.44 299.628 317.983 299.588C318.034 299.582 318.092 299.582 318.146 299.588H318.722C322.112 299.628 325.357 300.261 328.363 301.388C339.224 305.443 346.956 315.915 346.956 328.192C346.956 343.994 334.146 356.802 318.347 356.802C302.544 356.802 289.737 343.994 289.737 328.192C289.737 326.693 289.849 325.223 290.078 323.787L232.916 290.784C228.003 294.753 221.756 297.132 214.944 297.132C207.043 297.132 199.892 293.928 194.717 288.752L326.001 420.037C309.907 425.488 292.66 428.448 274.723 428.448C186.512 428.448 115 356.936 115 268.725C115 180.515 186.515 109 274.725 109C362.936 109 434.448 180.512 434.448 268.723C434.448 273.933 434.199 279.08 433.712 284.161H433.709Z" fill="#D6F1FE"/>
<path d="M307.201 237.759C310.52 239.066 314.123 239.804 317.882 239.854C317.948 239.858 318.014 239.86 318.08 239.859C318.091 239.859 318.103 239.859 318.114 239.859C318.117 239.859 318.119 239.859 318.122 239.859C318.125 239.859 318.129 239.859 318.132 239.859C318.178 239.859 318.222 239.857 318.266 239.855H318.725H318.737L318.749 239.854C322.372 239.812 325.844 239.134 329.066 237.928C340.684 233.59 348.959 222.389 348.959 209.25C348.959 200.863 345.588 193.261 340.125 187.737L340.117 187.729L339.873 187.486L339.865 187.478C334.338 182.015 326.737 178.644 318.349 178.644C301.443 178.644 287.74 192.346 287.74 209.253C287.74 210.38 287.799 211.495 287.92 212.596L233.386 244.079C228.259 240.209 221.873 237.907 214.949 237.907C198.046 237.907 184.34 251.609 184.34 268.516C184.34 276.969 187.767 284.622 193.305 290.161C198.84 295.696 206.493 299.126 214.947 299.126C221.735 299.126 228.004 296.916 233.078 293.18L287.92 324.843C287.799 325.945 287.74 327.06 287.74 328.186C287.74 345.093 301.443 358.796 318.349 358.796C335.253 358.796 348.959 345.093 348.959 328.186V328.183C348.959 315.045 340.684 303.844 329.066 299.506C325.847 298.3 322.374 297.622 318.749 297.579L318.737 297.579H318.725H318.221C318.115 297.573 318.005 297.573 317.895 297.58C314.13 297.631 310.527 298.369 307.202 299.675C304.638 300.676 302.24 302.017 300.066 303.634L245.36 272.048C245.493 270.888 245.562 269.709 245.562 268.513C245.562 267.449 245.508 266.398 245.401 265.364L300.067 233.797C302.24 235.418 304.637 236.758 307.201 237.759Z" fill="#3353E3" stroke="#3353E3" stroke-width="4"/>
<defs>
<linearGradient id="paint0_linear_2555_7" x1="91.1604" y1="464.133" x2="539.491" y2="176.649" gradientUnits="userSpaceOnUse">
<stop offset="0.105" stop-color="#59A4FF"/>
<stop offset="1" stop-color="#2770D3"/>
</linearGradient>
<linearGradient id="paint1_linear_2555_7" x1="624.889" y1="452.759" x2="73.4798" y2="-17.0509" gradientUnits="userSpaceOnUse">
<stop stop-color="#595EFF"/>
<stop offset="1" stop-color="#4DB8FF"/>
</linearGradient>
</defs>
</svg>
