<svg width="18" height="18" viewBox="0 0 18 18" fill="none" xmlns="http://www.w3.org/2000/svg">
<g clip-path="url(#clip0_2572_9)">
<path d="M13.0791 12.5256C13.0791 13.4613 12.3231 14.2197 11.3906 14.2197C10.458 14.2197 9.70211 13.4613 9.70211 12.5256C9.70211 12.4369 9.70868 12.3499 9.72224 12.2648L6.34866 10.3107C6.05877 10.5457 5.69004 10.6866 5.288 10.6866C4.82169 10.6866 4.3997 10.4969 4.09424 10.1904C3.78861 9.88373 3.59969 9.46038 3.59969 8.99256C3.59969 8.05685 4.35572 7.29854 5.28817 7.29854C5.69799 7.29854 6.07345 7.44515 6.36589 7.68833L9.72224 5.74436C9.70868 5.65935 9.70211 5.5723 9.70211 5.48355C9.70211 4.54789 10.458 3.78955 11.3906 3.78955C11.8533 3.78955 12.2725 3.97604 12.5774 4.27842L12.5918 4.29285C12.8932 4.59863 13.0791 5.01912 13.0791 5.48338C13.0791 6.21031 12.6227 6.83037 11.9817 7.07047C11.8041 7.1372 11.6127 7.17468 11.4128 7.17704H11.3788C11.3788 7.17704 11.3784 7.1774 11.3782 7.17704C11.3779 7.1774 11.3776 7.1774 11.3774 7.17704C11.3771 7.1774 11.3764 7.1774 11.3759 7.17704C11.3737 7.1774 11.3713 7.1774 11.3691 7.17704C11.1601 7.17485 10.96 7.13394 10.7758 7.06117C10.6102 6.99633 10.4571 6.90574 10.3216 6.79443H10.3213L6.95853 8.74257C6.97055 8.82404 6.97683 8.90735 6.97683 8.99238C6.97683 9.08504 6.96937 9.17581 6.95516 9.26439L10.3213 11.2143C10.457 11.1033 10.6102 11.0125 10.7758 10.9477C10.9602 10.8751 11.1601 10.8342 11.3691 10.8318C11.3721 10.8315 11.3755 10.8315 11.3788 10.8318H11.4128C11.6128 10.8342 11.8043 10.8717 11.9817 10.9384C12.6227 11.1785 13.0791 11.7985 13.0791 12.5255V12.5256Z" fill="black"/>
</g>
<defs>
<clipPath id="clip0_2572_9">
<rect width="18" height="18" fill="white"/>
</clipPath>
</defs>
</svg>
